HIERARCHY
ROOT Hips
{
  OFFSET 31.2901 98.4257 16.9629
  CHANNELS 6 Xposition Yposition Zposition Zrotation Xrotation Yrotation
  JOINT ToSpine
  {
    OFFSET -0.0105055 1.38907 -7.13956
    CHANNELS 3 Zrotation Xrotation Yrotation
    JOINT Spine
    {
      OFFSET 0.0105055 10 1
      CHANNELS 3 Zrotation Xrotation Yrotation
      JOINT Spine1
      {
        OFFSET 0 12 1.60637
        CHANNELS 3 Zrotation Xrotation Yrotation
        JOINT Neck
        {
          OFFSET 0 27 2.26658
          CHANNELS 3 Zrotation Xrotation Yrotation
          JOINT Head
          {
            OFFSET 0 9 2.12705
            CHANNELS 3 Zrotation Xrotation Yrotation
            End Site
            {
              OFFSET 0 11 2
            }
          }
        }
        JOINT LeftShoulder
        {
          OFFSET 8 19.6109 2.86452
          CHANNELS 3 Zrotation Xrotation Yrotation
          JOINT LeftArm
          {
            OFFSET 12 1 0.681055
            CHANNELS 3 Zrotation Xrotation Yrotation
            JOINT LeftForeArm
            {
              OFFSET 19 0 -1.52608
              CHANNELS 3 Zrotation Xrotation Yrotation
              JOINT LeftHand
              {
                OFFSET 23 0 0
                CHANNELS 3 Zrotation Xrotation Yrotation
                End Site
                {
                  OFFSET 10 0 0
                }
              }
            }
          }
        }
        JOINT RightShoulder
        {
          OFFSET -8 19.6109 2.86452
          CHANNELS 3 Zrotation Xrotation Yrotation
          JOINT RightArm
          {
            OFFSET -12 1 0.681055
            CHANNELS 3 Zrotation Xrotation Yrotation
            JOINT RightForeArm
            {
              OFFSET -19 0 -1.52608
              CHANNELS 3 Zrotation Xrotation Yrotation
              JOINT RightHand
              {
                OFFSET -23 0 0
                CHANNELS 3 Zrotation Xrotation Yrotation
                End Site
                {
                  OFFSET -10 0 0
                }
              }
            }
          }
        }
      }
    }
  }
  JOINT LeftUpLeg
  {
    OFFSET 9 -7.17245 0
    CHANNELS 3 Zrotation Xrotation Yrotation
    JOINT LeftLeg
    {
      OFFSET 0 -44.1113 0
      CHANNELS 3 Zrotation Xrotation Yrotation
      JOINT LeftFoot
      {
        OFFSET 0 -36.1829 0
        CHANNELS 3 Zrotation Xrotation Yrotation
        JOINT LeftToeBase
        {
          OFFSET 0 -4.84184 13
          CHANNELS 3 Zrotation Xrotation Yrotation
          End Site
          {
            OFFSET 0 1 6
          }
        }
      }
    }
  }
  JOINT RightUpLeg
  {
    OFFSET -9 -7.17245 0
    CHANNELS 3 Zrotation Xrotation Yrotation
    JOINT RightLeg
    {
      OFFSET 0 -44.0551 0
      CHANNELS 3 Zrotation Xrotation Yrotation
      JOINT RightFoot
      {
        OFFSET 0 -36.1469 0
        CHANNELS 3 Zrotation Xrotation Yrotation
        JOINT RightToeBase
        {
          OFFSET 0 -4.92256 13
          CHANNELS 3 Zrotation Xrotation Yrotation
          End Site
          {
            OFFSET 0 1 6
          }
        }
      }
    }
  }
}
MOTION
Frames:	10
Frame Time:	0.0333333
31.2881 98.4224 17.0207 -0.351143 -4.46907 -1.24386 0 0 0 0.901956 3.4611 -0.03764 -2.33051 8.69185 0.514691 8.38374 -19.5698 -1.07218 -3.13486 3.63669 0.845249 -28.3498 5.83871 -13.342 -38.626 17.983 -5.15272 -10.4203 -2.30934 -10.7291 7.38135 0.144319 2.23929 32.593 7.69501 16.2443 39.0773 18.5256 2.25746 5.53352 -6.2223 18.1832 -0.271986 -0.0136529 5.6264 3.18921 4.72829 10.5837 -3.04418 12.973 1.88464 1.64329 -10.5865 0.153241 0.178772 0.212394 -0.346028 -3.74451 3.0521 -10.4404 3.04737 12.4291 0.153135 -4.90529 -7.60713 -0.326119 -0.487922 -4.33154 0.34078 
31.2332 98.4397 17.2991 0.123943 -4.57366 -1.09668 0 0 0 0.20322 3.18099 -0.0810429 -1.68681 8.89128 0.323675 6.95577 -19.4876 -1.0154 -2.30279 3.77301 0.517551 -29.3604 5.97129 -13.2448 -38.1523 17.218 -4.82487 -10.1906 -0.818062 -10.4848 7.38619 0.16455 2.5382 31.9951 7.55476 16.1885 39.588 19.304 1.69716 5.57913 -6.24458 18.288 -0.622176 -0.0320898 5.64661 2.65862 5.24333 10.347 -2.9555 12.3637 1.47984 0.692441 -10.0312 0.0599658 -0.149124 0.0197624 0.343008 -4.09808 3.75067 -10.6736 2.84549 11.6274 0.367452 -4.5369 -7.81286 -0.312016 -0.45933 -3.71582 0.415009 
31.0703 98.5415 17.7238 -0.321552 -5.01379 -1.08522 0 0 0 0.41441 2.74438 -0.109007 -0.792106 9.69487 0.102705 5.06284 -19.1025 -0.973501 -1.24194 3.26363 0.0595019 -31.2416 6.25783 -13.1766 -37.0931 17.5241 -4.08203 -9.81981 -0.560006 -11.2006 8.00436 0.212327 3.04024 30.9049 7.27746 16.0249 39.7758 17.4737 2.72029 5.66886 -3.16205 16.2913 0.365215 0.0160378 4.75324 3.13269 6.64446 10.5657 -2.89385 10.9835 0.960232 1.08779 -9.27432 0.0883589 -0.325021 -0.733131 0.545294 -3.00547 5.19173 -9.95709 2.09897 9.82006 -0.481292 -3.3217 -6.74007 -0.193689 -0.354552 -3.74353 0.0828159 
30.9768 98.6196 18.1131 -0.361637 -5.12717 -1.40245 0 0 0 0.928898 2.15299 -0.01235 -1.41168 10.0858 0.371895 5.18436 -18.5824 -0.935388 -1.53225 3.1578 0.204773 -31.2438 6.25245 -13.1612 -37.9389 15.5914 -3.48389 -9.42617 -0.0291758 -11.1328 8.23804 0.195694 2.71881 30.4342 7.16459 15.9681 39.9852 15.7775 3.54691 6.68443 -1.62941 13.732 0.287063 0.0118495 4.50333 2.97403 7.65058 10.5515 -2.79954 9.61709 1.37573 1.19875 -8.68623 0.091024 -0.502547 -0.890497 0.911199 -2.60799 6.07992 -9.54262 1.68357 8.45037 -0.643293 -3.76343 -5.86803 -0.193308 -0.408004 -4.19408 0.125998 
30.8168 98.6525 18.3936 -0.30187 -5.04926 -1.89669 0 0 0 1.09681 1.61838 0.211533 -1.78635 10.3028 0.710278 5.1421 -18.3255 -0.97493 -1.52775 3.44603 0.175689 -30.7826 6.15623 -13.1092 -39.1129 16.5344 -2.86563 -9.33592 -2.19724 -12.1873 8.80565 0.260083 3.37003 30.2151 7.21382 16.2141 39.7993 14.7284 3.96167 7.59075 -1.04773 11.6015 1.28067 0.0518202 4.70727 2.72631 8.4455 10.4746 -2.68876 8.12041 2.01243 1.10631 -7.85957 0.0758597 -0.53367 -1.31943 0.869163 -2.50155 6.3485 -9.33792 1.40877 7.92375 -0.2278 -3.15618 -5.88924 -0.162362 -0.350029 -3.84052 0.0423834 
30.7122 98.6186 18.726 -0.392304 -4.9028 -2.85956 0 0 0 1.32662 0.829984 0.570928 -1.77542 10.723 1.08999 4.53228 -18.0125 -0.920027 -1.28957 3.8 0.100567 -31.1518 6.16008 -12.9577 -39.904 19.2784 -2.04707 -9.49089 -5.90409 -13.9541 8.89508 0.300986 3.68615 30.0705 7.22285 16.3147 39.3256 14.1161 4.19017 8.03317 -0.35219 10.1051 1.31295 0.0477945 4.06847 2.48719 9.39525 10.3779 -2.43602 6.47901 3.05293 0.572692 -7.73817 0.0392893 -0.304637 -0.870647 0.460975 -2.23947 6.50454 -8.88864 0.977473 7.46807 0.365093 -2.90767 -5.90138 -0.149916 -0.332501 -3.76859 0.00810413 
30.5598 98.6769 18.8196 -0.4571 -4.76248 -3.03857 0 0 0 1.23908 0.67855 0.651397 -1.63124 10.634 1.10046 4.36053 -17.8118 -0.784395 -1.41594 3.69771 0.240602 -31.5762 6.22216 -12.9376 -40.1547 20.4612 -1.51417 -8.77611 -5.37198 -14.9837 6.50556 0.0356125 0.750275 30.0918 7.26197 16.409 38.7206 13.9427 4.30382 8.27641 0.133735 9.28293 0.300089 0.0119374 3.9779 2.49131 9.48987 10.3416 -2.2024 6.0344 3.02847 0.184079 -7.08958 0.0109197 -0.585873 -1.26167 1.00863 -2.05788 6.60897 -8.76732 0.986373 6.94482 0.308578 -2.94777 -5.8036 -0.149468 -0.344797 -3.3903 0.147922 
30.407 98.6515 18.8736 -0.424592 -4.76378 -3.02474 0 0 0 0.975401 0.776539 0.564973 -1.31741 10.5231 0.933035 4.34248 -17.7457 -0.689991 -1.88027 3.38128 0.441315 -31.8653 6.27983 -12.9639 -40.4183 19.9509 -1.87422 -9.31127 -6.36313 -14.5583 7.63573 0.0425239 0.640487 29.9147 7.23341 16.4256 38.8525 13.7453 4.03329 8.31509 -1.02093 9.50199 0.845539 0.0371368 4.73962 2.49479 9.62199 10.3311 -2.15339 5.78298 3.29455 0.747897 -6.8437 0.0448424 -0.421781 -1.78965 0.481732 -1.99854 6.74458 -8.78909 1.00328 6.78792 0.292642 -2.85126 -5.71834 -0.141503 -0.468416 -3.82789 0.41738 
30.3083 98.6395 18.878 -0.414891 -4.70218 -3.25966 0 0 0 1.02633 0.828919 0.585386 -1.37277 10.3886 1.00177 3.99297 -17.6571 -0.631093 -1.28061 3.37797 0.299404 -31.9237 6.29878 -12.988 -40.4684 20.3193 -2.33107 -9.61865 -6.42539 -14.2115 7.17978 0.0688004 1.09776 29.6276 7.05812 16.1029 39.1489 13.7057 3.95114 8.03304 -0.818011 10.0441 -0.818589 -0.0285042 3.8251 2.52043 9.76681 10.3343 -2.24296 5.4529 3.44431 0.749613 -6.86293 0.0452695 -0.412929 -1.42384 0.5609 -2.042 6.50358 -8.84743 0.980834 7.22038 0.659327 -2.27167 -6.23337 -0.123564 -0.630302 -3.40956 1.02423 
30.0645 98.6681 18.9131 -0.393782 -4.63635 -3.4513 0 0 0 0.413502 0.606367 0.585977 -0.867782 10.514 0.854197 3.98323 -17.4464 -0.605513 -0.94053 3.39919 0.244125 -31.9736 6.32046 -13.0227 -40.4368 20.2646 -2.72356 -9.95349 -6.14766 -13.5867 7.45935 0.0555145 0.851871 29.575 7.06344 16.1451 39.1624 14.5829 3.88432 8.25844 -2.96809 10.9826 -0.615264 -0.0214516 3.97047 2.85266 9.58454 10.6669 -2.49905 5.85995 2.68723 -0.120917 -6.65505 -0.00721165 -0.886661 -1.96135 1.52753 -1.88352 6.49819 -8.68585 1.03318 6.95206 0.586702 -3.16202 -5.59159 -0.154279 -0.496657 -4.2276 0.394515 
